<svg xmlns="http://www.w3.org/2000/svg" xmlns:xlink="http://www.w3.org/1999/xlink" width="40" zoomAndPan="magnify" viewBox="0 0 30 30.000001" height="40" preserveAspectRatio="xMidYMid meet" version="1.0"><defs><clipPath id="8930f36cda"><path d="M 3.386719 5.078125 L 25.886719 5.078125 L 25.886719 20 L 3.386719 20 Z M 3.386719 5.078125 " clip-rule="nonzero"/></clipPath><clipPath id="e8560e3d24"><path d="M 10 20 L 15 20 L 15 23.949219 L 10 23.949219 Z M 10 20 " clip-rule="nonzero"/></clipPath><clipPath id="5751891219"><path d="M 18 20 L 23 20 L 23 23.949219 L 18 23.949219 Z M 18 20 " clip-rule="nonzero"/></clipPath></defs><g clip-path="url(#8930f36cda)"><path fill="#b27e67" d="M 25.335938 8.171875 C 24.921875 7.640625 24.304688 7.339844 23.632812 7.339844 L 11.785156 7.339844 C 11.375 7.339844 11.039062 7.671875 11.039062 8.082031 C 11.039062 8.492188 11.375 8.824219 11.785156 8.824219 L 23.632812 8.824219 C 23.835938 8.824219 24.03125 8.917969 24.15625 9.078125 C 24.28125 9.242188 24.324219 9.445312 24.273438 9.640625 L 22.4375 16.734375 C 22.296875 17.273438 21.808594 17.652344 21.25 17.652344 L 11.3125 17.652344 C 10.582031 17.652344 9.933594 17.136719 9.777344 16.421875 L 9.617188 15.699219 L 19.066406 15.699219 C 19.480469 15.699219 19.816406 15.367188 19.816406 14.957031 C 19.816406 14.546875 19.480469 14.214844 19.066406 14.214844 L 9.300781 14.214844 L 8.898438 12.339844 L 19.953125 12.339844 C 20.367188 12.339844 20.703125 12.007812 20.703125 11.597656 C 20.703125 11.1875 20.367188 10.855469 19.953125 10.855469 L 8.574219 10.855469 L 8.339844 9.769531 C 8.050781 8.449219 7.296875 7.269531 6.207031 6.453125 L 4.714844 5.332031 C 4.386719 5.085938 3.917969 5.148438 3.667969 5.476562 C 3.421875 5.804688 3.484375 6.269531 3.8125 6.515625 L 5.304688 7.636719 C 6.105469 8.238281 6.664062 9.105469 6.875 10.082031 L 8.3125 16.734375 C 8.617188 18.125 9.875 19.136719 11.308594 19.136719 L 21.238281 19.136719 C 22.480469 19.136719 23.5625 18.304688 23.875 17.105469 L 25.714844 10.011719 C 25.882812 9.375 25.746094 8.699219 25.335938 8.171875 Z M 25.335938 8.171875 " fill-opacity="1" fill-rule="nonzero"/></g><g clip-path="url(#e8560e3d24)"><path fill="#b27e67" d="M 14.269531 22.050781 C 14.269531 22.296875 14.21875 22.539062 14.125 22.769531 C 14.027344 23 13.890625 23.203125 13.714844 23.378906 C 13.535156 23.554688 13.332031 23.691406 13.097656 23.789062 C 12.867188 23.882812 12.625 23.929688 12.375 23.929688 C 12.125 23.929688 11.882812 23.882812 11.648438 23.789062 C 11.417969 23.691406 11.214844 23.554688 11.035156 23.378906 C 10.859375 23.203125 10.722656 23 10.625 22.769531 C 10.527344 22.539062 10.480469 22.296875 10.480469 22.050781 C 10.480469 21.800781 10.527344 21.558594 10.625 21.328125 C 10.722656 21.097656 10.859375 20.894531 11.035156 20.71875 C 11.214844 20.542969 11.417969 20.40625 11.648438 20.308594 C 11.882812 20.214844 12.125 20.167969 12.375 20.167969 C 12.625 20.167969 12.867188 20.214844 13.097656 20.308594 C 13.332031 20.40625 13.535156 20.542969 13.714844 20.71875 C 13.890625 20.894531 14.027344 21.097656 14.125 21.328125 C 14.21875 21.558594 14.269531 21.800781 14.269531 22.050781 Z M 14.269531 22.050781 " fill-opacity="1" fill-rule="nonzero"/></g><g clip-path="url(#5751891219)"><path fill="#b27e67" d="M 22.140625 22.050781 C 22.140625 22.296875 22.09375 22.539062 21.996094 22.769531 C 21.902344 23 21.765625 23.203125 21.585938 23.378906 C 21.410156 23.554688 21.203125 23.691406 20.972656 23.789062 C 20.742188 23.882812 20.5 23.929688 20.25 23.929688 C 19.996094 23.929688 19.753906 23.882812 19.523438 23.789062 C 19.292969 23.691406 19.085938 23.554688 18.910156 23.378906 C 18.730469 23.203125 18.59375 23 18.5 22.769531 C 18.402344 22.539062 18.355469 22.296875 18.355469 22.050781 C 18.355469 21.800781 18.402344 21.558594 18.5 21.328125 C 18.59375 21.097656 18.730469 20.894531 18.910156 20.71875 C 19.085938 20.542969 19.292969 20.40625 19.523438 20.308594 C 19.753906 20.214844 19.996094 20.167969 20.25 20.167969 C 20.5 20.167969 20.742188 20.214844 20.972656 20.308594 C 21.203125 20.40625 21.410156 20.542969 21.585938 20.71875 C 21.765625 20.894531 21.902344 21.097656 21.996094 21.328125 C 22.09375 21.558594 22.140625 21.800781 22.140625 22.050781 Z M 22.140625 22.050781 " fill-opacity="1" fill-rule="nonzero"/></g></svg>